---
config:
  class:
    hideEmptyMembersBox: true
  theme: 'base'
  themeVariables:
    lineColor: '#666666'
    mainBkg: '#ffffff99'
    classText: '#666666'
---
classDiagram
    namespace chat_clients {
        class ChatClient:::interface
        class DefaultChatClient:::concrete
    }

    namespace chat_models {
        class ChatModel:::interface
        class OpenAiChatModel:::concrete
        class OllamaChatModel:::concrete
    }

    ChatClient <|-- DefaultChatClient : implements
    ChatModel <|-- OpenAiChatModel : implements
    ChatModel <|-- OllamaChatModel : implements

    DefaultChatClient ..> ChatModel : use

    classDef interface fill:#6ed7d1,stroke:#01b4aa,color:#01837c
    classDef concrete fill:#f58b8d,stroke:#f0565a,color:#c0363b
